<?xml version="1.0" encoding="UTF-8" standalone="no"?><!DOCTYPE svg PUBLIC "-//W3C//DTD SVG 1.1//EN" "http://www.w3.org/Graphics/SVG/1.1/DTD/svg11.dtd"><!-- Uploaded to: SVG Repo, www.svgrepo.com, Generator: SVG Repo Mixer Tools -->
<svg fill="#000000" width="800px" height="800px" viewBox="0 0 32 32" version="1.1" xmlns="http://www.w3.org/2000/svg" xmlns:xlink="http://www.w3.org/1999/xlink" xml:space="preserve" xmlns:serif="http://www.serif.com/" style="fill-rule:evenodd;clip-rule:evenodd;stroke-linejoin:round;stroke-miterlimit:2;"><path d="M13,9c4.967,0 9,4.033 9,9c0,4.642 -3.523,8.469 -8.038,8.949c0.91,1.244 2.379,2.051 4.038,2.051l5.967,0c2.758,0 4.995,-2.233 4.999,-4.992l0.027,-16c0.003,-1.327 -0.523,-2.601 -1.461,-3.541c-0.938,-0.939 -2.211,-1.467 -3.539,-1.467c-1.879,0 -4.114,0 -5.993,0c-2.761,0 -5,2.239 -5,5l0,1Z"/><path d="M7.522,22.356l-4.583,4.583c-0.585,0.586 -0.585,1.536 0,2.122c0.586,0.585 1.536,0.585 2.122,-0l4.802,-4.803c0.943,0.475 2.009,0.742 3.137,0.742c3.863,0 7,-3.137 7,-7c0,-3.863 -3.137,-7 -7,-7c-3.863,0 -7,3.137 -7,7c0,1.646 0.569,3.16 1.522,4.356Z"/></svg>